<svg width="333" height="715" xmlns="http://www.w3.org/2000/svg" xmlns:xlink="http://www.w3.org/1999/xlink" xml:space="preserve" overflow="hidden"><g transform="translate(-1253 -78)"><path d="M1333 374 1333 778.32" stroke="#156082" stroke-width="27.5" stroke-miterlimit="8" fill="none" fill-rule="evenodd"/><path d="M1348 374 1348 778.32" stroke="#61CBF4" stroke-width="27.5" stroke-miterlimit="8" fill="none" fill-rule="evenodd"/><path d="M1355.5 383.5 1355.5 787.821" stroke="#FFFFFF" stroke-width="6.875" stroke-miterlimit="8" fill="none" fill-rule="evenodd"/><path d="M1496 373 1496 777.32" stroke="#156082" stroke-width="27.5" stroke-miterlimit="8" fill="none" fill-rule="evenodd"/><path d="M1511 373 1511 777.32" stroke="#61CBF4" stroke-width="27.5" stroke-miterlimit="8" fill="none" fill-rule="evenodd"/><path d="M1518.5 381.5 1518.5 785.82" stroke="#FFFFFF" stroke-width="6.875" stroke-miterlimit="8" fill="none" fill-rule="evenodd"/><path d="M1254.5 244.5C1254.5 153.373 1328.37 79.4999 1419.5 79.4999 1510.63 79.4999 1584.5 153.373 1584.5 244.5 1584.5 335.627 1510.63 409.5 1419.5 409.5 1328.37 409.5 1254.5 335.627 1254.5 244.5Z" stroke="#000000" stroke-width="3.4375" stroke-miterlimit="8" fill="#00B0F0" fill-rule="evenodd"/><path d="M1266 232C1266 149.157 1333.16 82.0002 1416 82.0002 1498.84 82.0002 1566 149.157 1566 232 1566 314.843 1498.84 382 1416 382 1333.16 382 1266 314.843 1266 232Z" fill="#61CBF4" fill-rule="evenodd"/><path d="M1278 212C1278 143.517 1333.52 88 1402 88 1470.48 88 1526 143.517 1526 212 1526 280.483 1470.48 336 1402 336 1333.52 336 1278 280.483 1278 212Z" fill="#96DCF8" fill-rule="evenodd"/><path d="M1353 157.5C1353 141.208 1366.21 128 1382.5 128 1398.79 128 1412 141.208 1412 157.5 1412 173.792 1398.79 187 1382.5 187 1366.21 187 1353 173.792 1353 157.5Z" fill="#CAEEFB" fill-rule="evenodd"/></g></svg>