<svg width="422" height="433" xmlns="http://www.w3.org/2000/svg" xmlns:xlink="http://www.w3.org/1999/xlink" xml:space="preserve" overflow="hidden"><g transform="translate(-2959 -556)"><path d="M3231.67 565.551 3226.29 608.856 3229.71 612.572 3236.4 614.475C3281.53 632.388 3315.08 666.993 3332.84 708.461L3336.42 719.647 3336.92 719.597 3372.79 703.288 3339.72 729.97 3343.14 740.694C3350.35 773.908 3348.09 809.599 3334.59 843.622L3325.9 860.406 3327 861.239 3326.99 861.26C3324.32 865.766 3322.7 869.773 3322.51 872.384L3322.68 872.949 3342.99 888.223 3311.89 883.832 3310.24 885.214 3296.36 902.469C3254.17 945.444 3191.86 964.84 3131.6 951.017L3130 950.515 3114.58 983.728 3113.88 945.494 3105.97 943.03C3049.57 920.638 3011.24 872.167 2999.23 816.811L2998.16 807.77 2996.45 804.397 2995.81 803.998 2963.42 806.824 2995.48 785.003 2995.24 782.925C2994.77 759.988 2998.78 736.565 3007.78 713.883 3011.72 703.959 3016.46 694.589 3021.88 685.816L3023.43 683.744 2993.67 654.355 3029.68 675.352 3040.12 661.335C3080.34 616.136 3141.74 594.057 3202.15 604.739L3206.34 605.931 3207.1 604.011 3207.12 604.016C3210.97 604.538 3214.42 604.01 3216.71 602.55L3217.22 601.961Z" stroke="#0B3041" stroke-width="2.29167" stroke-miterlimit="8" fill="#B1A6D7" fill-rule="evenodd"/><path d="M3094.52 759.292C3100.94 742.692 3118.23 727.048 3134.07 720.569 3149.9 714.09 3174.68 714.689 3189.53 720.417 3204.39 726.144 3216.24 740.259 3223.18 754.938 3230.11 769.617 3233.3 794.568 3231.13 808.489 3228.96 822.41 3219.28 832.003 3212.78 839.5 3206.27 846.997 3204.89 849.64 3192.12 853.472 3179.35 857.305 3149.64 867.01 3133.54 861.46 3117.44 855.909 3102.04 837.196 3095.53 820.168 3089.03 803.14 3088.09 775.892 3094.52 759.292Z" stroke="#002060" stroke-width="2.29167" stroke-miterlimit="8" fill="#47488D" fill-rule="evenodd"/><path d="M3137.1 802.905C3140.82 793.529 3151.44 788.944 3160.81 792.665 3170.18 796.385 3174.76 807.003 3171.04 816.379 3167.32 825.755 3156.7 830.34 3147.33 826.62 3137.96 822.899 3133.38 812.281 3137.1 802.905Z" fill="#FFFFFF" fill-rule="evenodd" fill-opacity="0.909804"/><path d="M3250.68 712.298C3252.95 707.827 3266.24 702.856 3275.61 706.576 3284.99 710.297 3288.34 716.395 3284.62 725.772 3280.89 735.149 3271.31 737.122 3261.94 733.401 3252.57 729.68 3248.4 716.769 3250.68 712.298Z" fill="#0B3041" fill-rule="evenodd"/><path d="M3257.51 864.627C3259.89 867.732 3263.68 883.658 3256.19 890.42 3248.7 897.181 3237.16 896.595 3230.4 889.112 3223.64 881.628 3234.41 878.553 3241.89 871.792 3249.38 865.03 3255.13 861.522 3257.51 864.627Z" fill="#0B3041" fill-rule="evenodd"/><path d="M3043.53 842.302C3049.98 834.548 3063.86 835.462 3074.53 844.343 3085.2 853.224 3088.62 866.709 3082.16 874.463 3075.71 882.216 3061.83 881.302 3051.16 872.422 3040.49 863.541 3037.07 850.056 3043.53 842.302Z" fill="#0B3041" fill-rule="evenodd"/><path d="M3105.61 654.709C3109.34 645.333 3119.95 640.748 3129.32 644.469 3138.7 648.189 3143.28 658.807 3139.55 668.183 3135.83 677.559 3125.22 682.144 3115.84 678.423 3106.47 674.703 3101.89 664.085 3105.61 654.709Z" fill="#0B3041" fill-rule="evenodd"/><path d="M3087.17 648.68 3090.69 645.834C3140.47 618.036 3194.09 611.647 3239.76 633.255 3285.43 654.863 3314.49 700.377 3324.56 756.496L3324.59 761.017 3301.2 704.586C3283.72 679.696 3260.99 659.75 3233.4 646.696 3205.81 633.642 3175.97 628.715 3145.64 630.983Z" fill="#FFFFFF" fill-rule="evenodd"/></g></svg>